<?xml version="1.0" standalone="no"?>
<!DOCTYPE svg PUBLIC "-//W3C//DTD SVG 20010904//EN"
 "http://www.w3.org/TR/2001/REC-SVG-20010904/DTD/svg10.dtd">
<svg version="1.0" xmlns="http://www.w3.org/2000/svg"
 width="489.000000pt" height="421.000000pt" viewBox="0 0 489.000000 421.000000"
 preserveAspectRatio="xMidYMid meet">
<metadata>
Created by potrace 1.16, written by Peter Selinger 2001-2019
</metadata>
<g transform="translate(0.000000,421.000000) scale(0.100000,-0.100000)"
fill="#000000" stroke="none">
<path d="M1850 3226 l0 -665 -57 -37 c-87 -55 -83 -57 -83 34 0 45 -4 83 -9
87 -5 3 -83 -41 -173 -98 l-163 -102 -3 -183 -2 -182 90 0 90 0 0 -225 0 -225
335 0 335 0 0 295 0 295 110 0 110 0 0 -295 0 -295 223 -2 222 -3 3 -87 3 -88
-668 -2 -668 -3 0 -65 0 -65 737 -3 737 -2 3 157 3 158 153 3 152 3 0 224 0
225 90 0 90 0 0 180 c0 174 -1 180 -22 195 -13 9 -122 78 -243 154 l-220 137
-3 219 -3 220 -77 46 c-42 26 -192 116 -332 201 -281 171 -741 449 -752 455
-5 2 -8 -295 -8 -661z m468 218 c169 -103 363 -221 432 -263 l125 -77 3 -132
c1 -73 0 -132 -3 -132 -3 0 -102 61 -220 135 -119 74 -217 135 -220 135 -2 0
-101 -61 -219 -135 -119 -74 -218 -135 -221 -135 -3 0 -5 178 -5 395 0 257 3
395 10 395 6 0 148 -84 318 -186z m365 -653 l197 -123 0 -449 0 -449 -110 0
-110 0 -2 223 -3 222 -112 3 -112 3 0 350 c-1 193 2 356 5 361 3 5 15 3 27 -5
12 -7 111 -69 220 -136z m522 -324 l160 -102 0 -70 0 -70 -90 -5 -90 -5 -3
-222 -2 -223 -80 0 -80 0 0 400 c0 314 3 400 13 399 6 0 84 -46 172 -102z"/>
<path d="M1560 2835 l0 -85 68 -44 c37 -24 70 -41 75 -39 11 6 9 151 -3 173
-10 19 -108 80 -129 80 -7 0 -11 -29 -11 -85z"/>
<path d="M522 960 c-64 -39 -72 -66 -72 -248 0 -186 8 -217 67 -254 94 -57
208 2 220 116 l6 46 -46 0 c-44 0 -46 -1 -49 -32 -2 -20 -13 -38 -30 -51 -25
-19 -28 -19 -52 -3 l-26 16 0 160 c0 147 1 160 19 170 46 24 87 0 93 -55 3
-28 6 -30 43 -30 39 0 40 1 43 35 7 106 -124 186 -216 130z"/>
<path d="M1050 962 c-19 -9 -45 -32 -57 -51 -22 -32 -23 -44 -23 -201 0 -157
1 -169 23 -200 35 -52 70 -73 122 -73 52 0 87 21 123 73 21 31 22 43 22 200 0
157 -1 169 -23 201 -26 39 -79 69 -122 69 -16 0 -46 -8 -65 -18z m104 -88 c13
-13 16 -43 16 -168 0 -167 -4 -179 -57 -179 -46 0 -53 23 -53 182 0 120 3 147
17 163 20 22 56 23 77 2z"/>
<path d="M2611 958 c-69 -47 -75 -64 -79 -221 -5 -163 5 -212 49 -256 45 -45
98 -57 153 -33 23 11 54 35 67 53 22 32 24 44 27 188 4 176 -7 225 -60 262
-46 33 -115 36 -157 7z m111 -85 c16 -14 18 -33 18 -164 0 -148 0 -148 -26
-168 -34 -27 -40 -26 -69 4 -24 23 -25 29 -25 165 0 127 2 142 20 160 24 24
57 26 82 3z"/>
<path d="M1502 708 l3 -263 35 0 35 0 3 135 4 135 66 -135 c64 -129 68 -135
97 -135 l30 0 3 263 2 262 -40 0 -40 0 0 -142 c0 -91 -3 -139 -10 -132 -5 5
-34 68 -64 139 l-54 130 -36 3 -36 3 2 -263z"/>
<path d="M2030 705 l0 -267 88 4 c99 5 139 21 174 70 21 31 23 44 26 188 2
137 1 159 -16 190 -34 62 -61 75 -173 78 l-99 4 0 -267z m182 158 c16 -14 18
-33 18 -154 0 -137 0 -138 -26 -158 -30 -23 -79 -28 -86 -8 -8 20 -10 316 -3
327 10 16 77 12 97 -7z"/>
<path d="M3072 708 l3 -263 40 0 40 0 3 113 3 112 54 0 54 0 3 -112 3 -113 40
0 40 0 3 263 2 262 -45 0 -45 0 0 -105 0 -105 -55 0 -55 0 0 105 0 105 -45 0
-45 0 2 -262z"/>
<path d="M3595 897 c-4 -40 -5 -136 -4 -213 3 -118 7 -144 24 -174 55 -93 183
-97 247 -8 22 32 23 41 26 251 l3 217 -45 0 -46 0 0 -204 0 -205 -26 -20 c-34
-27 -40 -26 -69 4 -25 24 -25 25 -25 225 l0 200 -39 0 -39 0 -7 -73z"/>
<path d="M4132 708 l3 -263 85 0 c97 0 139 18 177 75 30 43 31 122 4 164 -19
28 -19 29 5 74 30 56 30 77 1 132 -33 63 -72 80 -185 80 l-92 0 2 -262z"/>
</g>
</svg>
